{
	"asset":{
		"version":"2.0",
		"generator":"Created using the official Cinema 4D glTF Exporter 1.000x284978"
	},
	"scenes":[{
		"nodes":[0]
	}],
	"nodes":[{
		"name":"Null",
		"translation":[0.0,
		0.0,
		0.0],
		"rotation":[0.0,
		0.0,
		0.0,
		-1.0],
		"scale":[1.0,
		1.0,
		1.0],
		"children":[1,
		2,
		3,
		4,
		5]
	},
	{
		"name":"Cylinder.1",
		"translation":[0.0,
		11.38205623626709,
		0.0],
		"rotation":[0.0,
		0.0,
		0.0,
		-1.0],
		"scale":[1.0,
		1.0,
		1.0],
		"mesh":0
	},
	{
		"name":"DRACAENA_MARGINATA.1",
		"translation":[-157.80361938476563,
		0.0,
		-187.81280517578126],
		"rotation":[0.27034005522727969,
		0.653388261795044,
		0.653388261795044,
		-0.27034005522727969],
		"scale":[100.0,
		100.0,
		100.0],
		"mesh":1
	},
	{
		"name":"CORDYLINE_FRUCTICOSA",
		"translation":[214.0428466796875,
		0.0,
		-187.81280517578126],
		"rotation":[0.7071067690849304,
		0.0,
		0.0,
		-0.7071067690849304],
		"scale":[100.0,
		100.0,
		100.0],
		"mesh":2
	},
	{
		"name":"DYPSIS_LUTESCENS",
		"translation":[-209.41246032714845,
		-47.58538818359375,
		-164.14527893066407],
		"rotation":[0.7071067690849304,
		0.0,
		0.0,
		-0.7071067690849304],
		"scale":[100.0,
		100.0,
		100.0],
		"mesh":3
	},
	{
		"name":"DRACAENA_MARGINATA",
		"translation":[162.24281311035157,
		-54.63701248168945,
		-138.12953186035157],
		"rotation":[0.7071067690849304,
		0.0,
		0.0,
		-0.7071067690849304],
		"scale":[100.0,
		100.0,
		100.0],
		"mesh":4
	}],
	"meshes":[{
		"name":"Cylinder.1",
		"primitives":[{
			"attributes":{
				"POSITION":1,
				"NORMAL":2,
				"TEXCOORD_0":3
			},
			"indices":0
		}]
	},
	{
		"name":"DRACAENA_MARGINATA.1",
		"primitives":[{
			"attributes":{
				"POSITION":5,
				"NORMAL":6,
				"TEXCOORD_0":7
			},
			"indices":4,
			"material":0
		}]
	},
	{
		"name":"CORDYLINE_FRUCTICOSA",
		"primitives":[{
			"attributes":{
				"POSITION":9,
				"NORMAL":10,
				"TEXCOORD_0":11
			},
			"indices":8,
			"material":0
		}]
	},
	{
		"name":"DYPSIS_LUTESCENS",
		"primitives":[{
			"attributes":{
				"POSITION":13,
				"NORMAL":14,
				"TEXCOORD_0":15
			},
			"indices":12,
			"material":0
		}]
	},
	{
		"name":"DRACAENA_MARGINATA",
		"primitives":[{
			"attributes":{
				"POSITION":17,
				"NORMAL":18,
				"TEXCOORD_0":19
			},
			"indices":16,
			"material":0
		}]
	}],
	"accessors":[{
		"bufferView":0,
		"type":"SCALAR",
		"componentType":5123,
		"count":600,
		"byteOffset":0,
		"min":[0],
		"max":[146]
	},
	{
		"bufferView":1,
		"type":"VEC3",
		"componentType":5126,
		"count":147,
		"byteOffset":0,
		"min":[-173.48159790039063,
		-5.214556694030762,
		-173.48159790039063],
		"max":[173.48159790039063,
		5.214556694030762,
		173.48159790039063]
	},
	{
		"bufferView":1,
		"type":"VEC3",
		"componentType":5126,
		"count":147,
		"byteOffset":12,
		"min":[-1.0,
		-1.0,
		-1.0],
		"max":[1.0,
		1.0,
		1.0]
	},
	{
		"bufferView":1,
		"type":"VEC2",
		"componentType":5126,
		"count":147,
		"byteOffset":24,
		"min":[0.0,
		0.0],
		"max":[1.0,
		1.0]
	},
	{
		"bufferView":2,
		"type":"SCALAR",
		"componentType":5123,
		"count":42972,
		"byteOffset":0,
		"min":[0],
		"max":[11072]
	},
	{
		"bufferView":3,
		"type":"VEC3",
		"componentType":5126,
		"count":11073,
		"byteOffset":0,
		"min":[-0.8834434747695923,
		-0.8209724426269531,
		0.0],
		"max":[0.8834434747695923,
		0.8209724426269531,
		3.1366169452667238]
	},
	{
		"bufferView":3,
		"type":"VEC3",
		"componentType":5126,
		"count":11073,
		"byteOffset":12,
		"min":[-0.9998441338539124,
		-0.9999284744262695,
		-0.9966399073600769],
		"max":[0.9999837875366211,
		0.9999858736991882,
		0.9999945163726807]
	},
	{
		"bufferView":3,
		"type":"VEC2",
		"componentType":5126,
		"count":11073,
		"byteOffset":24,
		"min":[0.0005673468112945557,
		-1.3645219802856446],
		"max":[0.8570630550384522,
		2.168313503265381]
	},
	{
		"bufferView":4,
		"type":"SCALAR",
		"componentType":5123,
		"count":139590,
		"byteOffset":0,
		"min":[0],
		"max":[29078]
	},
	{
		"bufferView":5,
		"type":"VEC3",
		"componentType":5126,
		"count":29079,
		"byteOffset":0,
		"min":[-0.5780943632125855,
		-0.6672589778900147,
		0.0],
		"max":[0.5780943632125855,
		0.6672589778900147,
		2.5771806240081789]
	},
	{
		"bufferView":5,
		"type":"VEC3",
		"componentType":5126,
		"count":29079,
		"byteOffset":12,
		"min":[-0.9999771118164063,
		-0.9999707341194153,
		-0.8990673422813416],
		"max":[0.9999927878379822,
		0.999991238117218,
		0.9999937415122986]
	},
	{
		"bufferView":5,
		"type":"VEC2",
		"componentType":5126,
		"count":29079,
		"byteOffset":24,
		"min":[0.002948000095784664,
		0.010128974914550782],
		"max":[0.9816579818725586,
		0.8567779064178467]
	},
	{
		"bufferView":6,
		"type":"SCALAR",
		"componentType":5123,
		"count":72552,
		"byteOffset":0,
		"min":[0],
		"max":[19342]
	},
	{
		"bufferView":7,
		"type":"VEC3",
		"componentType":5126,
		"count":19343,
		"byteOffset":0,
		"min":[-0.8188109993934631,
		-0.8986333012580872,
		0.4911496937274933],
		"max":[0.6792030334472656,
		0.7385793328285217,
		2.9436423778533937]
	},
	{
		"bufferView":7,
		"type":"VEC3",
		"componentType":5126,
		"count":19343,
		"byteOffset":12,
		"min":[-0.9999704957008362,
		-0.9998575448989868,
		-0.9992076754570007],
		"max":[0.9999330639839172,
		0.9998682737350464,
		0.9999808073043823]
	},
	{
		"bufferView":7,
		"type":"VEC2",
		"componentType":5126,
		"count":19343,
		"byteOffset":24,
		"min":[0.019287001341581346,
		0.0],
		"max":[0.9977823495864868,
		1.0]
	},
	{
		"bufferView":8,
		"type":"SCALAR",
		"componentType":5123,
		"count":42972,
		"byteOffset":0,
		"min":[0],
		"max":[11072]
	},
	{
		"bufferView":9,
		"type":"VEC3",
		"componentType":5126,
		"count":11073,
		"byteOffset":0,
		"min":[-0.8741497993469238,
		-0.8948270678520203,
		0.5782464742660523],
		"max":[0.7758048176765442,
		0.6384540796279907,
		3.5072824954986574]
	},
	{
		"bufferView":9,
		"type":"VEC3",
		"componentType":5126,
		"count":11073,
		"byteOffset":12,
		"min":[-0.9998440742492676,
		-0.9999284744262695,
		-0.9966405034065247],
		"max":[0.9999837279319763,
		0.9999858736991882,
		0.9999945163726807]
	},
	{
		"bufferView":9,
		"type":"VEC2",
		"componentType":5126,
		"count":11073,
		"byteOffset":24,
		"min":[0.0005673468112945557,
		-1.3645219802856446],
		"max":[0.8570630550384522,
		2.168313503265381]
	}],
	"bufferViews":[{
		"buffer":0,
		"byteOffset":0,
		"byteLength":1200,
		"target":34963
	},
	{
		"buffer":0,
		"byteOffset":1200,
		"byteLength":4704,
		"target":34962,
		"byteStride":32
	},
	{
		"buffer":1,
		"byteOffset":0,
		"byteLength":85944,
		"target":34963
	},
	{
		"buffer":1,
		"byteOffset":85944,
		"byteLength":354336,
		"target":34962,
		"byteStride":32
	},
	{
		"buffer":2,
		"byteOffset":0,
		"byteLength":279180,
		"target":34963
	},
	{
		"buffer":2,
		"byteOffset":279180,
		"byteLength":930528,
		"target":34962,
		"byteStride":32
	},
	{
		"buffer":3,
		"byteOffset":0,
		"byteLength":145104,
		"target":34963
	},
	{
		"buffer":3,
		"byteOffset":145104,
		"byteLength":618976,
		"target":34962,
		"byteStride":32
	},
	{
		"buffer":4,
		"byteOffset":0,
		"byteLength":85944,
		"target":34963
	},
	{
		"buffer":4,
		"byteOffset":85944,
		"byteLength":354336,
		"target":34962,
		"byteStride":32
	}],
	"buffers":[{
		"uri":"data:application/octet-stream;base64,",
		"byteLength":5904
	},
	{
		"uri":"data:application/octet-stream;base64,",
		"byteLength":440280
	},
	{
		"uri":"data:application/octet-stream;base64,",
		"byteLength":1209708
	},
	{
		"uri":"data:application/octet-stream;base64,",
		"byteLength":764080
	},
	{
		"uri":"data:application/octet-stream;base64,",
		"byteLength":440280
	}],
	"materials":[{
		"pbrMetallicRoughness":{
			"baseColorFactor":[0.8300000000000001,
			0.2655999999999999,
			0.7547466666666665,
			1.0],
			"metallicFactor":0.0,
			"roughnessFactor":0.5
		},
		"emissiveFactor":[0.0,
		0.0,
		0.0],
		"alphaMode":"OPAQUE",
		"doubleSided":true,
		"name":"Mat"
	}]
}