{
	"asset":{
		"version":"2.0",
		"generator":"Created using the official Cinema 4D glTF Exporter 1.000x284978"
	},
	"scenes":[{
		"nodes":[0]
	}],
	"nodes":[{
		"name":"Cloner",
		"translation":[0.0,
		33.050315856933597,
		0.0],
		"rotation":[0.0,
		0.0,
		0.0,
		-1.0],
		"scale":[1.0,
		1.0,
		1.0],
		"mesh":0
	}],
	"meshes":[{
		"name":"Cloner",
		"primitives":[{
			"attributes":{
				"POSITION":1,
				"NORMAL":2,
				"TEXCOORD_0":3
			},
			"indices":0
		}]
	}],
	"accessors":[{
		"bufferView":0,
		"type":"SCALAR",
		"componentType":5123,
		"count":18144,
		"byteOffset":0,
		"min":[0],
		"max":[4076]
	},
	{
		"bufferView":1,
		"type":"VEC3",
		"componentType":5126,
		"count":4077,
		"byteOffset":0,
		"min":[-355.16815185546877,
		-24.20461082458496,
		-354.4524841308594],
		"max":[355.82763671875,
		24.2562313079834,
		356.204345703125]
	},
	{
		"bufferView":1,
		"type":"VEC3",
		"componentType":5126,
		"count":4077,
		"byteOffset":12,
		"min":[-0.999705970287323,
		-0.9997051954269409,
		-0.9999973177909851],
		"max":[0.9997060894966126,
		0.9997051954269409,
		0.9999972581863403]
	},
	{
		"bufferView":1,
		"type":"VEC2",
		"componentType":5126,
		"count":4077,
		"byteOffset":24,
		"min":[0.0,
		0.0],
		"max":[1.0,
		1.0]
	}],
	"bufferViews":[{
		"buffer":0,
		"byteOffset":0,
		"byteLength":36288,
		"target":34963
	},
	{
		"buffer":0,
		"byteOffset":36288,
		"byteLength":130464,
		"target":34962,
		"byteStride":32
	}],
	"buffers":[{
		"uri":"data:application/octet-stream;base64,",
		"byteLength":166752
	}]
}