{
	"asset":{
		"version":"2.0",
		"generator":"Created using the official Cinema 4D glTF Exporter 1.000x284978"
	},
	"scenes":[{
		"nodes":[0]
	}],
	"nodes":[{
		"name":"Spheres",
		"translation":[0.0,
		0.0,
		0.0],
		"rotation":[0.0,
		0.0,
		0.0,
		-1.0],
		"scale":[100.0,
		100.0,
		100.0],
		"mesh":0
	}],
	"meshes":[{
		"name":"Spheres",
		"primitives":[{
			"attributes":{
				"POSITION":1,
				"NORMAL":2,
				"TEXCOORD_0":3
			},
			"indices":0,
			"material":0
		}]
	}],
	"accessors":[{
		"bufferView":0,
		"type":"SCALAR",
		"componentType":5123,
		"byteOffset":0,
		"count":18144,
		"min":[0],
		"max":[4076]
	},
	{
		"bufferView":1,
		"type":"VEC3",
		"componentType":5126,
		"byteOffset":0,
		"count":4077,
		"min":[-3.5516819953918459,
		0.08845700323581696,
		-3.544524908065796],
		"max":[3.5582759380340578,
		0.5730649828910828,
		3.5620429515838625]
	},
	{
		"bufferView":1,
		"type":"VEC3",
		"componentType":5126,
		"byteOffset":12,
		"count":4077,
		"min":[-0.9996563196182251,
		-0.9996563196182251,
		-0.9999688267707825],
		"max":[0.9996563196182251,
		0.9996563196182251,
		0.9999688267707825]
	},
	{
		"bufferView":1,
		"type":"VEC2",
		"componentType":5126,
		"byteOffset":24,
		"count":4077,
		"min":[0.06820256263017655,
		0.03271140158176422],
		"max":[0.8737093210220337,
		0.952129602432251]
	}],
	"bufferViews":[{
		"buffer":0,
		"byteOffset":0,
		"byteLength":36288,
		"target":34963
	},
	{
		"buffer":0,
		"byteOffset":36288,
		"byteLength":130464,
		"target":34962,
		"byteStride":32
	}],
	"buffers":[{
		"uri":"data:application/octet-stream;base64,",
		"byteLength":166752
	}],
	"materials":[{
		"pbrMetallicRoughness":{
			"baseColorFactor":[0.8,
			0.8,
			0.8,
			1.0],
			"metallicFactor":1.0,
			"roughnessFactor":1.0
		},
		"emissiveFactor":[0.0,
		0.0,
		0.0],
		"alphaMode":"OPAQUE",
		"doubleSided":true,
		"name":"Mat.1"
	}]
}