{
	"asset":{
		"version":"2.0",
		"generator":"Created using the official Cinema 4D glTF Exporter 1.000x284978"
	},
	"scenes":[{
		"nodes":[0]
	}],
	"nodes":[{
		"name":"Cloner",
		"translation":[-49.863033294677737,
		-3.0532302082659017e-15,
		0.0],
		"rotation":[0.0,
		0.0,
		0.0,
		-1.0],
		"scale":[1.0,
		1.0,
		1.0],
		"mesh":0
	}],
	"meshes":[{
		"name":"Cloner",
		"primitives":[{
			"attributes":{
				"TEXCOORD_0":3,
				"POSITION":1,
				"NORMAL":2
			},
			"indices":0
		}]
	}],
	"accessors":[{
		"bufferView":0,
		"type":"SCALAR",
		"componentType":5123,
		"count":1620,
		"byteOffset":0,
		"min":[0],
		"max":[557]
	},
	{
		"bufferView":1,
		"type":"VEC3",
		"componentType":5126,
		"count":558,
		"byteOffset":0,
		"min":[-149.863037109375,
		-37.0,
		-203.08155822753907],
		"max":[250.1295623779297,
		37.0,
		203.08155822753907]
	},
	{
		"bufferView":1,
		"type":"VEC3",
		"componentType":5126,
		"count":558,
		"byteOffset":12,
		"min":[-0.9422041177749634,
		-0.983314573764801,
		-0.9860689043998718],
		"max":[0.9999725818634033,
		0.983314573764801,
		0.9860689043998718]
	},
	{
		"bufferView":1,
		"type":"VEC2",
		"componentType":5126,
		"count":558,
		"byteOffset":24,
		"min":[0.0,
		0.0],
		"max":[1.0,
		1.0]
	}],
	"bufferViews":[{
		"buffer":0,
		"byteOffset":0,
		"byteLength":3240,
		"target":34963
	},
	{
		"buffer":0,
		"byteOffset":3240,
		"byteLength":17856,
		"target":34962,
		"byteStride":32
	}],
	"buffers":[{
		"uri":"data:application/octet-stream;base64,",
		"byteLength":21096
	}]
}